<svg width="1024" height="1024" viewBox="0 0 1024 1024" fill="none" xmlns="http://www.w3.org/2000/svg">
<rect width="1024" height="1024" rx="230" transform="matrix(-1 0 0 1 1024 0)" fill="url(#paint0_linear_22_67)"/>
<path d="M423.525 364.143C417.16 360.468 414.939 352.296 419.076 346.222C434.196 324.024 454.153 305.464 477.511 291.979C504.719 276.27 535.583 268 567 268C598.417 268 629.281 276.27 656.489 291.979C679.847 305.464 699.804 324.024 714.924 346.222C719.061 352.297 716.84 360.468 710.475 364.143C704.111 367.818 696.018 365.597 691.802 359.577C679.073 341.4 662.493 326.177 643.182 315.028C620.02 301.655 593.745 294.615 567 294.615C540.255 294.615 513.98 301.655 490.818 315.028C471.508 326.177 454.927 341.4 442.198 359.577C437.982 365.597 429.89 367.818 423.525 364.143Z" fill="#33C5E6"/>
<path d="M83.3411 364.26C76.9762 360.585 74.7551 352.414 78.8925 346.339C94.0121 324.142 113.969 305.581 137.327 292.096C164.535 276.387 195.399 268.117 226.816 268.117C258.234 268.117 289.098 276.387 316.306 292.096C339.664 305.582 359.621 324.142 374.74 346.339C378.878 352.414 376.657 360.585 370.292 364.26C363.927 367.935 355.835 365.714 351.619 359.694C338.889 341.517 322.309 326.294 302.998 315.145C279.836 301.772 253.562 294.732 226.816 294.732C200.071 294.732 173.797 301.772 150.635 315.145C131.324 326.294 114.744 341.517 102.014 359.694C97.7981 365.714 89.7059 367.935 83.3411 364.26Z" fill="#33C5E6"/>
<path d="M290.206 771.506H327.657L284.077 837.082C282.127 840.145 280.458 843.626 280.458 846.968C280.458 852.818 284.077 857.548 293.408 857.548H345.2C352.719 857.548 356.478 853.929 356.478 846.272C356.478 839.032 352.719 835.273 345.2 835.273H312.343L355.92 769.556C357.312 767.189 358.287 764.264 358.287 761.062C358.287 753.126 354.53 749.229 347.429 749.229H290.206C282.687 749.229 278.79 752.988 278.79 760.645C278.79 767.747 282.687 771.506 290.206 771.506Z" fill="#33C5E6"/>
<path d="M208.816 734.649H231.135L205.164 773.727C204.002 775.554 203.007 777.627 203.007 779.619C203.007 783.104 205.164 785.925 210.725 785.925H241.589C246.071 785.925 248.309 783.769 248.309 779.204C248.309 774.889 246.068 772.648 241.589 772.648H222.008L247.977 733.487C248.807 732.076 249.386 730.334 249.386 728.425C249.386 723.696 247.148 721.375 242.915 721.375H208.816C204.337 721.375 202.013 723.616 202.013 728.178C202.013 732.408 204.334 734.649 208.816 734.649Z" fill="#33C5E6"/>
<path d="M144.749 680.33H160.33L142.2 707.611C141.39 708.887 140.694 710.335 140.694 711.725C140.694 714.158 142.2 716.127 146.081 716.127H167.628C170.757 716.127 172.321 714.621 172.321 711.436C172.321 708.424 170.757 706.859 167.628 706.859H153.958L172.088 679.52C172.668 678.535 173.073 677.318 173.073 675.986C173.073 672.685 171.509 671.063 168.554 671.063H144.749C141.62 671.063 140 672.627 140 675.812C140 678.766 141.623 680.33 144.749 680.33Z" fill="#33C5E6"/>
<defs>
<linearGradient id="paint0_linear_22_67" x1="512" y1="0" x2="512" y2="1024" gradientUnits="userSpaceOnUse">
<stop stop-color="#11424D"/>
<stop offset="1"/>
</linearGradient>
</defs>
</svg>
