<svg width="18" height="18" viewBox="0 0 18 18" fill="none" xmlns="http://www.w3.org/2000/svg">
<path d="M9 18C6.5 18 4.375 17.125 2.625 15.375C0.875 13.625 0 11.5 0 9C0 6.5 0.875 4.375 2.625 2.625C4.375 0.875 6.5 0 9 0C9.13333 0 9.275 0.00416667 9.425 0.0125C9.575 0.0208333 9.76667 0.0333333 10 0.05C9.4 0.583333 8.93333 1.24167 8.6 2.025C8.26667 2.80833 8.1 3.63333 8.1 4.5C8.1 6 8.625 7.275 9.675 8.325C10.725 9.375 12 9.9 13.5 9.9C14.3667 9.9 15.1917 9.74583 15.975 9.4375C16.7583 9.12917 17.4167 8.7 17.95 8.15C17.9667 8.35 17.9792 8.5125 17.9875 8.6375C17.9958 8.7625 18 8.88333 18 9C18 11.5 17.125 13.625 15.375 15.375C13.625 17.125 11.5 18 9 18Z" fill="white" fill-opacity="0.5"/>
</svg>
