<svg width="269" height="43" viewBox="0 0 269 43" fill="none" xmlns="http://www.w3.org/2000/svg">
<path d="M145.304 39.7203C142.674 38.2021 141.757 34.826 143.466 32.3165C149.712 23.1458 157.958 15.4779 167.608 9.90646C178.848 3.41663 191.599 1.05261e-05 204.579 1.11965e-05C217.559 1.18668e-05 230.31 3.41663 241.55 9.90646C251.2 15.4779 259.445 23.1458 265.692 32.3165C267.401 34.8261 266.484 38.2021 263.854 39.7203C261.224 41.2385 257.881 40.321 256.139 37.8339C250.88 30.3243 244.03 24.035 236.053 19.4289C226.483 13.9042 215.628 10.9956 204.579 10.9956C193.529 10.9956 182.675 13.9042 173.105 19.4289C165.127 24.035 158.277 30.3243 153.018 37.8338C151.277 40.321 147.933 41.2385 145.304 39.7203Z" fill="white"/>
<path d="M4.76115 39.769C2.13158 38.2508 1.21396 34.8747 2.92328 32.3652C9.16975 23.1945 17.4148 15.5266 27.0648 9.95517C38.3056 3.46533 51.0565 0.0487166 64.0362 0.0487173C77.0159 0.0487179 89.7669 3.46534 101.008 9.95517C110.658 15.5266 118.903 23.1945 125.149 32.3652C126.858 34.8748 125.941 38.2508 123.311 39.769C120.682 41.2872 117.339 40.3697 115.597 37.8826C110.338 30.373 103.488 24.0837 95.5098 19.4777C85.9406 13.9529 75.0857 11.0443 64.0362 11.0443C52.9867 11.0443 42.1318 13.9529 32.5626 19.4777C24.5847 24.0837 17.7347 30.373 12.4757 37.8826C10.7339 40.3697 7.39072 41.2872 4.76115 39.769Z" fill="white"/>
</svg>
