<svg width="22" height="22" viewBox="0 0 22 22" fill="none" xmlns="http://www.w3.org/2000/svg">
<path d="M10.25 3.75V0H11.75V3.75H10.25ZM16.65 6.4L15.6 5.35L18.25 2.675L19.3 3.75L16.65 6.4ZM18.25 11.75V10.25H22V11.75H18.25ZM10.25 22V18.25H11.75V22H10.25ZM5.325 6.375L2.7 3.75L3.75 2.7L6.4 5.35L5.325 6.375ZM18.275 19.3L15.6 16.65L16.625 15.625L19.325 18.225L18.275 19.3ZM0 11.75V10.25H3.75V11.75H0ZM3.775 19.3L2.7 18.25L5.325 15.625L5.875 16.125L6.425 16.65L3.775 19.3ZM11 17C9.33333 17 7.91667 16.4167 6.75 15.25C5.58333 14.0833 5 12.6667 5 11C5 9.33333 5.58333 7.91667 6.75 6.75C7.91667 5.58333 9.33333 5 11 5C12.6667 5 14.0833 5.58333 15.25 6.75C16.4167 7.91667 17 9.33333 17 11C17 12.6667 16.4167 14.0833 15.25 15.25C14.0833 16.4167 12.6667 17 11 17Z" fill="#FFE895"/>
</svg>
